
<svg width="240" height="200" viewBox="0 0 240 200" fill="none" xmlns="http://www.w3.org/2000/svg">
  <path d="M60 170H190C193.314 170 196 167.314 196 164V36C196 32.6863 193.314 30 190 30H60C56.6863 30 54 32.6863 54 36V164C54 167.314 56.6863 170 60 170Z" fill="#F0F3F9" stroke="#CAD5E0" stroke-width="2"/>
  <rect x="71" y="71" width="108" height="8" rx="2" fill="#E2E8F0"/>
  <rect x="71" y="87" width="108" height="8" rx="2" fill="#E2E8F0"/>
  <rect x="71" y="103" width="60" height="8" rx="2" fill="#E2E8F0"/>
  <path d="M125 59.9997C125 66.6272 119.627 71.9997 113 71.9997C106.373 71.9997 101 66.6272 101 59.9997C101 53.3722 106.373 47.9997 113 47.9997C119.627 47.9997 125 53.3722 125 59.9997Z" fill="#C4F1F9"/>
  <path d="M152 60C152 66.6274 146.627 72 140 72C133.373 72 128 66.6274 128 60C128 53.3726 133.373 48 140 48C146.627 48 152 53.3726 152 60Z" fill="#C4F1F9"/>
  <path d="M109 55.9999L113 59.9999L117 55.9999" stroke="#2B6CB0" stroke-width="2" stroke-linecap="round" stroke-linejoin="round"/>
  <path d="M136 56L140 60L144 56" stroke="#2B6CB0" stroke-width="2" stroke-linecap="round" stroke-linejoin="round"/>
  <path d="M71 128C71 125.791 72.7909 124 75 124H146C148.209 124 150 125.791 150 128V140C150 142.209 148.209 144 146 144H75C72.7909 144 71 142.209 71 140V128Z" fill="#4299E1" fill-opacity="0.3"/>
  <path d="M126 134C126 135.657 124.657 137 123 137C121.343 137 120 135.657 120 134C120 132.343 121.343 131 123 131C124.657 131 126 132.343 126 134Z" fill="#2B6CB0"/>
  <path d="M139 134C139 135.657 137.657 137 136 137C134.343 137 133 135.657 133 134C133 132.343 134.343 131 136 131C137.657 131 139 132.343 139 134Z" fill="#2B6CB0"/>
  <path d="M113 134C113 135.657 111.657 137 110 137C108.343 137 107 135.657 107 134C107 132.343 108.343 131 110 131C111.657 131 113 132.343 113 134Z" fill="#2B6CB0"/>
  <path d="M100 134C100 135.657 98.6569 137 97 137C95.3431 137 94 135.657 94 134C94 132.343 95.3431 131 97 131C98.6569 131 100 132.343 100 134Z" fill="#2B6CB0"/>
  <path d="M87 134C87 135.657 85.6569 137 84 137C82.3431 137 81 135.657 81 134C81 132.343 82.3431 131 84 131C85.6569 131 87 132.343 87 134Z" fill="#2B6CB0"/>
  <rect x="118.5" y="100.5" width="16" height="16" rx="8" stroke="#ED8936" stroke-width="3"/>
  <path d="M124.5 104.5L124.5 108.5" stroke="#ED8936" stroke-width="2" stroke-linecap="round"/>
  <circle cx="124.5" cy="112.5" r="1" fill="#ED8936"/>
</svg>
